# MagicaVoxel @ Ephtracy

# group
g cesped

# material
mtllib cesped.mtl
usemtl palette

# normals
vn -1 0 0
vn 1 0 0
vn 0 0 1
vn 0 0 -1
vn 0 -1 0
vn 0 1 0

# texcoords
vt 0.443359 0.5
vt 0.509766 0.5
vt 0.572266 0.5
vt 0.619141 0.5
vt 0.634766 0.5
vt 0.689453 0.5
vt 0.767578 0.5
vt 0.802734 0.5
vt 0.916016 0.5

# verts
v -7.5 0 0.5
v -7.5 0 -0.5
v -7.5 1 0.5
v -7.5 1 -0.5
v -7.5 12 0.5
v -7.5 12 -0.5
v -7.5 15 0.5
v -7.5 15 -0.5
v -6.5 1 0.5
v -6.5 1 -0.5
v -6.5 3 0.5
v -6.5 3 -0.5
v -5.5 3 0.5
v -5.5 3 -0.5
v -5.5 4 0.5
v -5.5 4 -0.5
v -4.5 4 0.5
v -4.5 4 -0.5
v -4.5 5 0.5
v -4.5 5 -0.5
v -4.5 8 0.5
v -4.5 8 -0.5
v -4.5 9 0.5
v -4.5 9 -0.5
v -4.5 10 0.5
v -4.5 10 -0.5
v -4.5 11 0.5
v -4.5 11 -0.5
v -3.5 5 0.5
v -3.5 5 -0.5
v -3.5 8 0.5
v -3.5 8 -0.5
v -1.5 2 0.5
v -1.5 2 -0.5
v -1.5 3 0.5
v -1.5 3 -0.5
v -0.5 3 0.5
v -0.5 3 -0.5
v -0.5 5 0.5
v -0.5 5 -0.5
v 0.5 5 0.5
v 0.5 5 -0.5
v 0.5 6 0.5
v 0.5 6 -0.5
v 2.5 5 0.5
v 2.5 5 -0.5
v 2.5 6 0.5
v 2.5 6 -0.5
v 2.5 8 0.5
v 2.5 8 -0.5
v 2.5 9 0.5
v 2.5 9 -0.5
v 2.5 10 0.5
v 2.5 10 -0.5
v 2.5 11 0.5
v 2.5 11 -0.5
v 2.5 14 0.5
v 2.5 14 -0.5
v 2.5 15 0.5
v 2.5 15 -0.5
v 3.5 3 0.5
v 3.5 3 -0.5
v 3.5 5 0.5
v 3.5 5 -0.5
v 3.5 6 0.5
v 3.5 6 -0.5
v 3.5 8 0.5
v 3.5 8 -0.5
v 3.5 13 0.5
v 3.5 13 -0.5
v 3.5 14 0.5
v 3.5 14 -0.5
v 4.5 12 0.5
v 4.5 12 -0.5
v 4.5 13 0.5
v 4.5 13 -0.5
v 5.5 4 0.5
v 5.5 4 -0.5
v 5.5 6 0.5
v 5.5 6 -0.5
v -2.5 2 0.5
v -2.5 2 -0.5
v -2.5 6 0.5
v -2.5 6 -0.5
v -2.5 7 0.5
v -2.5 7 -0.5
v -2.5 8 0.5
v -2.5 8 -0.5
v -2.5 12 0.5
v -2.5 12 -0.5
v -2.5 13 0.5
v -2.5 13 -0.5
v -1.5 6 0.5
v -1.5 6 -0.5
v -1.5 7 0.5
v -1.5 7 -0.5
v -1.5 8 0.5
v -1.5 8 -0.5
v -1.5 9 0.5
v -1.5 9 -0.5
v -1.5 10 0.5
v -1.5 10 -0.5
v -1.5 11 0.5
v -1.5 11 -0.5
v -0.5 13 0.5
v -0.5 13 -0.5
v -0.5 14 0.5
v -0.5 14 -0.5
v 0.5 14 0.5
v 0.5 14 -0.5
v 0.5 15 0.5
v 0.5 15 -0.5
v 1.5 3 0.5
v 1.5 3 -0.5
v 1.5 6 0.5
v 1.5 6 -0.5
v 4.5 4 0.5
v 4.5 4 -0.5
v 4.5 6 0.5
v 4.5 6 -0.5
v 4.5 7 0.5
v 4.5 7 -0.5
v 4.5 8 0.5
v 4.5 8 -0.5
v 5.5 6 0.5
v 5.5 6 -0.5
v 5.5 7 0.5
v 5.5 7 -0.5
v 5.5 8 0.5
v 5.5 8 -0.5
v 5.5 9 0.5
v 5.5 9 -0.5
v 5.5 10 0.5
v 5.5 10 -0.5
v 5.5 11 0.5
v 5.5 11 -0.5
v 6.5 5 0.5
v 6.5 5 -0.5
v 6.5 6 0.5
v 6.5 6 -0.5
v 7.5 0 0.5
v 7.5 0 -0.5
v 7.5 5 0.5
v 7.5 5 -0.5
v 7.5 12 0.5
v 7.5 12 -0.5
v 7.5 13 0.5
v 7.5 13 -0.5
v 7.5 15 0.5
v 7.5 15 -0.5
v -7.5 0 0.5
v -7.5 1 0.5
v -7.5 12 0.5
v -7.5 15 0.5
v -6.5 0 0.5
v -6.5 1 0.5
v -6.5 3 0.5
v -6.5 13 0.5
v -6.5 15 0.5
v -5.5 1 0.5
v -5.5 2 0.5
v -5.5 3 0.5
v -5.5 4 0.5
v -4.5 1 0.5
v -4.5 2 0.5
v -4.5 3 0.5
v -4.5 4 0.5
v -4.5 5 0.5
v -4.5 8 0.5
v -4.5 9 0.5
v -4.5 10 0.5
v -4.5 11 0.5
v -3.5 0 0.5
v -3.5 1 0.5
v -3.5 2 0.5
v -3.5 3 0.5
v -3.5 4 0.5
v -3.5 5 0.5
v -3.5 8 0.5
v -3.5 9 0.5
v -3.5 10 0.5
v -3.5 11 0.5
v -3.5 13 0.5
v -3.5 14 0.5
v -2.5 2 0.5
v -2.5 6 0.5
v -2.5 7 0.5
v -2.5 8 0.5
v -2.5 9 0.5
v -2.5 10 0.5
v -2.5 11 0.5
v -2.5 12 0.5
v -2.5 13 0.5
v -1.5 0 0.5
v -1.5 1 0.5
v -1.5 2 0.5
v -1.5 3 0.5
v -1.5 6 0.5
v -1.5 7 0.5
v -1.5 8 0.5
v -1.5 9 0.5
v -1.5 10 0.5
v -1.5 11 0.5
v -1.5 14 0.5
v -1.5 15 0.5
v -0.5 1 0.5
v -0.5 2 0.5
v -0.5 3 0.5
v -0.5 5 0.5
v -0.5 13 0.5
v -0.5 14 0.5
v 0.5 5 0.5
v 0.5 6 0.5
v 0.5 14 0.5
v 0.5 15 0.5
v 1.5 3 0.5
v 1.5 6 0.5
v 2.5 0 0.5
v 2.5 2 0.5
v 2.5 5 0.5
v 2.5 6 0.5
v 2.5 8 0.5
v 2.5 9 0.5
v 2.5 10 0.5
v 2.5 11 0.5
v 2.5 14 0.5
v 2.5 15 0.5
v 3.5 2 0.5
v 3.5 3 0.5
v 3.5 5 0.5
v 3.5 6 0.5
v 3.5 8 0.5
v 3.5 9 0.5
v 3.5 10 0.5
v 3.5 11 0.5
v 3.5 13 0.5
v 3.5 14 0.5
v 4.5 0 0.5
v 4.5 2 0.5
v 4.5 4 0.5
v 4.5 6 0.5
v 4.5 7 0.5
v 4.5 8 0.5
v 4.5 9 0.5
v 4.5 10 0.5
v 4.5 11 0.5
v 4.5 12 0.5
v 4.5 13 0.5
v 4.5 14 0.5
v 4.5 15 0.5
v 5.5 2 0.5
v 5.5 4 0.5
v 5.5 6 0.5
v 5.5 7 0.5
v 5.5 8 0.5
v 5.5 9 0.5
v 5.5 10 0.5
v 5.5 11 0.5
v 5.5 13 0.5
v 5.5 14 0.5
v 6.5 0 0.5
v 6.5 4 0.5
v 6.5 5 0.5
v 6.5 6 0.5
v 7.5 0 0.5
v 7.5 5 0.5
v 7.5 12 0.5
v 7.5 13 0.5
v 7.5 15 0.5
v -7.5 0 -0.5
v -7.5 1 -0.5
v -7.5 12 -0.5
v -7.5 15 -0.5
v -6.5 0 -0.5
v -6.5 1 -0.5
v -6.5 3 -0.5
v -6.5 13 -0.5
v -6.5 15 -0.5
v -5.5 1 -0.5
v -5.5 2 -0.5
v -5.5 3 -0.5
v -5.5 4 -0.5
v -4.5 1 -0.5
v -4.5 2 -0.5
v -4.5 3 -0.5
v -4.5 4 -0.5
v -4.5 5 -0.5
v -4.5 8 -0.5
v -4.5 9 -0.5
v -4.5 10 -0.5
v -4.5 11 -0.5
v -3.5 0 -0.5
v -3.5 1 -0.5
v -3.5 2 -0.5
v -3.5 3 -0.5
v -3.5 4 -0.5
v -3.5 5 -0.5
v -3.5 8 -0.5
v -3.5 9 -0.5
v -3.5 10 -0.5
v -3.5 11 -0.5
v -3.5 13 -0.5
v -3.5 14 -0.5
v -2.5 2 -0.5
v -2.5 6 -0.5
v -2.5 7 -0.5
v -2.5 8 -0.5
v -2.5 9 -0.5
v -2.5 10 -0.5
v -2.5 11 -0.5
v -2.5 12 -0.5
v -2.5 13 -0.5
v -1.5 0 -0.5
v -1.5 1 -0.5
v -1.5 2 -0.5
v -1.5 3 -0.5
v -1.5 6 -0.5
v -1.5 7 -0.5
v -1.5 8 -0.5
v -1.5 9 -0.5
v -1.5 10 -0.5
v -1.5 11 -0.5
v -1.5 14 -0.5
v -1.5 15 -0.5
v -0.5 1 -0.5
v -0.5 2 -0.5
v -0.5 3 -0.5
v -0.5 5 -0.5
v -0.5 13 -0.5
v -0.5 14 -0.5
v 0.5 5 -0.5
v 0.5 6 -0.5
v 0.5 14 -0.5
v 0.5 15 -0.5
v 1.5 3 -0.5
v 1.5 6 -0.5
v 2.5 0 -0.5
v 2.5 2 -0.5
v 2.5 5 -0.5
v 2.5 6 -0.5
v 2.5 8 -0.5
v 2.5 9 -0.5
v 2.5 10 -0.5
v 2.5 11 -0.5
v 2.5 14 -0.5
v 2.5 15 -0.5
v 3.5 2 -0.5
v 3.5 3 -0.5
v 3.5 5 -0.5
v 3.5 6 -0.5
v 3.5 8 -0.5
v 3.5 9 -0.5
v 3.5 10 -0.5
v 3.5 11 -0.5
v 3.5 13 -0.5
v 3.5 14 -0.5
v 4.5 0 -0.5
v 4.5 2 -0.5
v 4.5 4 -0.5
v 4.5 6 -0.5
v 4.5 7 -0.5
v 4.5 8 -0.5
v 4.5 9 -0.5
v 4.5 10 -0.5
v 4.5 11 -0.5
v 4.5 12 -0.5
v 4.5 13 -0.5
v 4.5 14 -0.5
v 4.5 15 -0.5
v 5.5 2 -0.5
v 5.5 4 -0.5
v 5.5 6 -0.5
v 5.5 7 -0.5
v 5.5 8 -0.5
v 5.5 9 -0.5
v 5.5 10 -0.5
v 5.5 11 -0.5
v 5.5 13 -0.5
v 5.5 14 -0.5
v 6.5 0 -0.5
v 6.5 4 -0.5
v 6.5 5 -0.5
v 6.5 6 -0.5
v 7.5 0 -0.5
v 7.5 5 -0.5
v 7.5 12 -0.5
v 7.5 13 -0.5
v 7.5 15 -0.5
v -7.5 0 0.5
v -6.5 0 0.5
v -3.5 0 0.5
v -1.5 0 0.5
v 2.5 0 0.5
v 4.5 0 0.5
v 6.5 0 0.5
v 7.5 0 0.5
v -7.5 0 -0.5
v -6.5 0 -0.5
v -3.5 0 -0.5
v -1.5 0 -0.5
v 2.5 0 -0.5
v 4.5 0 -0.5
v 6.5 0 -0.5
v 7.5 0 -0.5
v 2.5 5 0.5
v 3.5 5 0.5
v 2.5 5 -0.5
v 3.5 5 -0.5
v -2.5 6 0.5
v -1.5 6 0.5
v 4.5 6 0.5
v 5.5 6 0.5
v -2.5 6 -0.5
v -1.5 6 -0.5
v 4.5 6 -0.5
v 5.5 6 -0.5
v -4.5 8 0.5
v -3.5 8 0.5
v -2.5 8 0.5
v -1.5 8 0.5
v 2.5 8 0.5
v 3.5 8 0.5
v 4.5 8 0.5
v 5.5 8 0.5
v -4.5 8 -0.5
v -3.5 8 -0.5
v -2.5 8 -0.5
v -1.5 8 -0.5
v 2.5 8 -0.5
v 3.5 8 -0.5
v 4.5 8 -0.5
v 5.5 8 -0.5
v -7.5 12 0.5
v -2.5 12 0.5
v 4.5 12 0.5
v 7.5 12 0.5
v -7.5 12 -0.5
v -2.5 12 -0.5
v 4.5 12 -0.5
v 7.5 12 -0.5
v -2.5 13 0.5
v -0.5 13 0.5
v 3.5 13 0.5
v 4.5 13 0.5
v -2.5 13 -0.5
v -0.5 13 -0.5
v 3.5 13 -0.5
v 4.5 13 -0.5
v -0.5 14 0.5
v 0.5 14 0.5
v 2.5 14 0.5
v 3.5 14 0.5
v -0.5 14 -0.5
v 0.5 14 -0.5
v 2.5 14 -0.5
v 3.5 14 -0.5
v -7.5 1 0.5
v -6.5 1 0.5
v -7.5 1 -0.5
v -6.5 1 -0.5
v -2.5 2 0.5
v -1.5 2 0.5
v -2.5 2 -0.5
v -1.5 2 -0.5
v -6.5 3 0.5
v -5.5 3 0.5
v -1.5 3 0.5
v -0.5 3 0.5
v 1.5 3 0.5
v 3.5 3 0.5
v -6.5 3 -0.5
v -5.5 3 -0.5
v -1.5 3 -0.5
v -0.5 3 -0.5
v 1.5 3 -0.5
v 3.5 3 -0.5
v -5.5 4 0.5
v -4.5 4 0.5
v 4.5 4 0.5
v 5.5 4 0.5
v -5.5 4 -0.5
v -4.5 4 -0.5
v 4.5 4 -0.5
v 5.5 4 -0.5
v -4.5 5 0.5
v -3.5 5 0.5
v -0.5 5 0.5
v 0.5 5 0.5
v 6.5 5 0.5
v 7.5 5 0.5
v -4.5 5 -0.5
v -3.5 5 -0.5
v -0.5 5 -0.5
v 0.5 5 -0.5
v 6.5 5 -0.5
v 7.5 5 -0.5
v 0.5 6 0.5
v 1.5 6 0.5
v 2.5 6 0.5
v 3.5 6 0.5
v 5.5 6 0.5
v 6.5 6 0.5
v 0.5 6 -0.5
v 1.5 6 -0.5
v 2.5 6 -0.5
v 3.5 6 -0.5
v 5.5 6 -0.5
v 6.5 6 -0.5
v -2.5 7 0.5
v -1.5 7 0.5
v 4.5 7 0.5
v 5.5 7 0.5
v -2.5 7 -0.5
v -1.5 7 -0.5
v 4.5 7 -0.5
v 5.5 7 -0.5
v -4.5 11 0.5
v -3.5 11 0.5
v -2.5 11 0.5
v -1.5 11 0.5
v 2.5 11 0.5
v 3.5 11 0.5
v 4.5 11 0.5
v 5.5 11 0.5
v -4.5 11 -0.5
v -3.5 11 -0.5
v -2.5 11 -0.5
v -1.5 11 -0.5
v 2.5 11 -0.5
v 3.5 11 -0.5
v 4.5 11 -0.5
v 5.5 11 -0.5
v -7.5 15 0.5
v -6.5 15 0.5
v -1.5 15 0.5
v 0.5 15 0.5
v 2.5 15 0.5
v 4.5 15 0.5
v 7.5 15 0.5
v -7.5 15 -0.5
v -6.5 15 -0.5
v -1.5 15 -0.5
v 0.5 15 -0.5
v 2.5 15 -0.5
v 4.5 15 -0.5
v 7.5 15 -0.5

# faces
f 3/5/1 2/5/1 1/5/1
f 4/5/1 2/5/1 3/5/1
f 7/1/1 6/1/1 5/1/1
f 8/1/1 6/1/1 7/1/1
f 11/5/1 10/5/1 9/5/1
f 12/5/1 10/5/1 11/5/1
f 15/5/1 14/5/1 13/5/1
f 16/5/1 14/5/1 15/5/1
f 19/5/1 18/5/1 17/5/1
f 20/5/1 18/5/1 19/5/1
f 23/7/1 22/7/1 21/7/1
f 24/7/1 22/7/1 23/7/1
f 25/8/1 24/8/1 23/8/1
f 26/8/1 24/8/1 25/8/1
f 27/7/1 26/7/1 25/7/1
f 28/7/1 26/7/1 27/7/1
f 31/9/1 30/9/1 29/9/1
f 32/9/1 30/9/1 31/9/1
f 35/5/1 34/5/1 33/5/1
f 36/5/1 34/5/1 35/5/1
f 39/5/1 38/5/1 37/5/1
f 40/5/1 38/5/1 39/5/1
f 43/5/1 42/5/1 41/5/1
f 44/5/1 42/5/1 43/5/1
f 47/3/1 46/3/1 45/3/1
f 48/3/1 46/3/1 47/3/1
f 51/7/1 50/7/1 49/7/1
f 52/7/1 50/7/1 51/7/1
f 53/8/1 52/8/1 51/8/1
f 54/8/1 52/8/1 53/8/1
f 55/7/1 54/7/1 53/7/1
f 56/7/1 54/7/1 55/7/1
f 59/1/1 58/1/1 57/1/1
f 60/1/1 58/1/1 59/1/1
f 63/9/1 62/9/1 61/9/1
f 64/9/1 62/9/1 63/9/1
f 67/9/1 66/9/1 65/9/1
f 68/9/1 66/9/1 67/9/1
f 71/1/1 70/1/1 69/1/1
f 72/1/1 70/1/1 71/1/1
f 75/1/1 74/1/1 73/1/1
f 76/1/1 74/1/1 75/1/1
f 79/5/1 78/5/1 77/5/1
f 80/5/1 78/5/1 79/5/1
f 81/9/2 82/9/2 83/9/2
f 83/9/2 82/9/2 84/9/2
f 85/9/2 86/9/2 87/9/2
f 87/9/2 86/9/2 88/9/2
f 89/1/2 90/1/2 91/1/2
f 91/1/2 90/1/2 92/1/2
f 93/3/2 94/3/2 95/3/2
f 95/3/2 94/3/2 96/3/2
f 97/7/2 98/7/2 99/7/2
f 99/7/2 98/7/2 100/7/2
f 99/8/2 100/8/2 101/8/2
f 101/8/2 100/8/2 102/8/2
f 101/7/2 102/7/2 103/7/2
f 103/7/2 102/7/2 104/7/2
f 105/1/2 106/1/2 107/1/2
f 107/1/2 106/1/2 108/1/2
f 109/1/2 110/1/2 111/1/2
f 111/1/2 110/1/2 112/1/2
f 113/5/2 114/5/2 115/5/2
f 115/5/2 114/5/2 116/5/2
f 117/9/2 118/9/2 119/9/2
f 119/9/2 118/9/2 120/9/2
f 121/9/2 122/9/2 123/9/2
f 123/9/2 122/9/2 124/9/2
f 125/3/2 126/3/2 127/3/2
f 127/3/2 126/3/2 128/3/2
f 129/7/2 130/7/2 131/7/2
f 131/7/2 130/7/2 132/7/2
f 131/8/2 132/8/2 133/8/2
f 133/8/2 132/8/2 134/8/2
f 133/7/2 134/7/2 135/7/2
f 135/7/2 134/7/2 136/7/2
f 137/5/2 138/5/2 139/5/2
f 139/5/2 138/5/2 140/5/2
f 141/5/2 142/5/2 143/5/2
f 143/5/2 142/5/2 144/5/2
f 145/1/2 146/1/2 147/1/2
f 147/1/2 146/1/2 148/1/2
f 147/6/2 148/6/2 149/6/2
f 149/6/2 148/6/2 150/6/2
f 155/5/3 152/5/3 151/5/3
f 156/5/3 152/5/3 155/5/3
f 158/1/3 154/1/3 153/1/3
f 159/1/3 154/1/3 158/1/3
f 160/5/3 157/5/3 156/5/3
f 160/2/3 156/2/3 155/2/3
f 161/5/3 157/5/3 160/5/3
f 162/5/3 157/5/3 161/5/3
f 164/2/3 160/2/3 155/2/3
f 164/2/3 161/2/3 160/2/3
f 165/5/3 163/5/3 162/5/3
f 165/2/3 161/2/3 164/2/3
f 165/5/3 162/5/3 161/5/3
f 166/5/3 163/5/3 165/5/3
f 167/5/3 163/5/3 166/5/3
f 173/2/3 164/2/3 155/2/3
f 174/5/3 165/5/3 164/5/3
f 174/2/3 164/2/3 173/2/3
f 174/5/3 166/5/3 165/5/3
f 175/5/3 166/5/3 174/5/3
f 176/3/3 167/3/3 166/3/3
f 176/5/3 166/5/3 175/5/3
f 177/5/3 168/5/3 167/5/3
f 177/3/3 167/3/3 176/3/3
f 178/5/3 168/5/3 177/5/3
f 179/7/3 170/7/3 169/7/3
f 180/8/3 171/8/3 170/8/3
f 180/7/3 170/7/3 179/7/3
f 181/7/3 172/7/3 171/7/3
f 181/8/3 171/8/3 180/8/3
f 182/7/3 172/7/3 181/7/3
f 183/6/3 159/6/3 158/6/3
f 183/1/3 158/1/3 153/1/3
f 184/6/3 159/6/3 183/6/3
f 185/9/3 179/9/3 178/9/3
f 185/5/3 175/5/3 174/5/3
f 185/9/3 176/9/3 175/9/3
f 185/9/3 178/9/3 177/9/3
f 185/5/3 174/5/3 173/5/3
f 185/9/3 177/9/3 176/9/3
f 186/9/3 179/9/3 185/9/3
f 187/9/3 179/9/3 186/9/3
f 188/8/3 180/8/3 179/8/3
f 188/9/3 179/9/3 187/9/3
f 189/4/3 181/4/3 180/4/3
f 189/8/3 180/8/3 188/8/3
f 190/8/3 182/8/3 181/8/3
f 190/4/3 181/4/3 189/4/3
f 191/8/3 182/8/3 190/8/3
f 192/1/3 184/1/3 183/1/3
f 192/1/3 183/1/3 153/1/3
f 193/1/3 184/1/3 192/1/3
f 194/5/3 185/5/3 173/5/3
f 195/5/3 185/5/3 194/5/3
f 196/5/3 185/5/3 195/5/3
f 198/3/3 187/3/3 186/3/3
f 199/3/3 187/3/3 198/3/3
f 200/7/3 189/7/3 188/7/3
f 201/8/3 190/8/3 189/8/3
f 201/7/3 189/7/3 200/7/3
f 202/7/3 191/7/3 190/7/3
f 202/8/3 190/8/3 201/8/3
f 203/7/3 191/7/3 202/7/3
f 204/1/3 184/1/3 193/1/3
f 204/6/3 159/6/3 184/6/3
f 205/6/3 159/6/3 204/6/3
f 206/5/3 197/5/3 196/5/3
f 206/5/3 196/5/3 195/5/3
f 206/2/3 195/2/3 194/2/3
f 207/5/3 197/5/3 206/5/3
f 208/5/3 197/5/3 207/5/3
f 210/1/3 205/1/3 204/1/3
f 210/1/3 204/1/3 193/1/3
f 211/1/3 205/1/3 210/1/3
f 212/5/3 209/5/3 208/5/3
f 212/5/3 208/5/3 207/5/3
f 214/1/3 205/1/3 211/1/3
f 215/1/3 205/1/3 214/1/3
f 216/5/3 213/5/3 212/5/3
f 216/5/3 212/5/3 207/5/3
f 217/5/3 213/5/3 216/5/3
f 218/2/3 206/2/3 194/2/3
f 218/2/3 207/2/3 206/2/3
f 219/5/3 216/5/3 207/5/3
f 219/2/3 207/2/3 218/2/3
f 228/5/3 219/5/3 218/5/3
f 228/5/3 216/5/3 219/5/3
f 229/5/3 216/5/3 228/5/3
f 230/3/3 221/3/3 220/3/3
f 231/3/3 221/3/3 230/3/3
f 232/7/3 223/7/3 222/7/3
f 233/8/3 224/8/3 223/8/3
f 233/7/3 223/7/3 232/7/3
f 234/7/3 225/7/3 224/7/3
f 234/8/3 224/8/3 233/8/3
f 235/7/3 225/7/3 234/7/3
f 237/1/3 227/1/3 226/1/3
f 238/5/3 228/5/3 218/5/3
f 239/9/3 229/9/3 228/9/3
f 239/5/3 228/5/3 238/5/3
f 239/9/3 231/9/3 230/9/3
f 239/9/3 232/9/3 231/9/3
f 239/9/3 230/9/3 229/9/3
f 240/9/3 232/9/3 239/9/3
f 241/9/3 232/9/3 240/9/3
f 242/9/3 232/9/3 241/9/3
f 243/8/3 233/8/3 232/8/3
f 243/9/3 232/9/3 242/9/3
f 244/4/3 234/4/3 233/4/3
f 244/8/3 233/8/3 243/8/3
f 245/8/3 235/8/3 234/8/3
f 245/4/3 234/4/3 244/4/3
f 246/8/3 235/8/3 245/8/3
f 248/1/3 237/1/3 236/1/3
f 249/1/3 227/1/3 237/1/3
f 249/1/3 237/1/3 248/1/3
f 250/1/3 227/1/3 249/1/3
f 251/2/3 239/2/3 238/2/3
f 251/5/3 240/5/3 239/5/3
f 252/5/3 240/5/3 251/5/3
f 253/3/3 242/3/3 241/3/3
f 254/3/3 242/3/3 253/3/3
f 255/7/3 244/7/3 243/7/3
f 256/8/3 245/8/3 244/8/3
f 256/7/3 244/7/3 255/7/3
f 257/7/3 246/7/3 245/7/3
f 257/8/3 245/8/3 256/8/3
f 258/7/3 246/7/3 257/7/3
f 259/1/3 248/1/3 247/1/3
f 259/1/3 249/1/3 248/1/3
f 260/6/3 250/6/3 249/6/3
f 260/1/3 249/1/3 259/1/3
f 261/2/3 252/2/3 251/2/3
f 261/2/3 251/2/3 238/2/3
f 262/5/3 253/5/3 252/5/3
f 262/2/3 252/2/3 261/2/3
f 263/5/3 253/5/3 262/5/3
f 264/5/3 253/5/3 263/5/3
f 265/5/3 262/5/3 261/5/3
f 265/5/3 263/5/3 262/5/3
f 266/5/3 263/5/3 265/5/3
f 267/1/3 259/1/3 247/1/3
f 268/6/3 260/6/3 259/6/3
f 268/1/3 259/1/3 267/1/3
f 269/6/3 250/6/3 260/6/3
f 269/6/3 260/6/3 268/6/3
f 270/5/4 271/5/4 274/5/4
f 274/5/4 271/5/4 275/5/4
f 272/1/4 273/1/4 277/1/4
f 277/1/4 273/1/4 278/1/4
f 275/5/4 276/5/4 279/5/4
f 274/2/4 275/2/4 279/2/4
f 279/5/4 276/5/4 280/5/4
f 280/5/4 276/5/4 281/5/4
f 274/2/4 279/2/4 283/2/4
f 279/2/4 280/2/4 283/2/4
f 281/5/4 282/5/4 284/5/4
f 283/2/4 280/2/4 284/2/4
f 280/5/4 281/5/4 284/5/4
f 284/5/4 282/5/4 285/5/4
f 285/5/4 282/5/4 286/5/4
f 274/2/4 283/2/4 292/2/4
f 283/5/4 284/5/4 293/5/4
f 292/2/4 283/2/4 293/2/4
f 284/5/4 285/5/4 293/5/4
f 293/5/4 285/5/4 294/5/4
f 285/3/4 286/3/4 295/3/4
f 294/5/4 285/5/4 295/5/4
f 286/5/4 287/5/4 296/5/4
f 295/3/4 286/3/4 296/3/4
f 296/5/4 287/5/4 297/5/4
f 288/7/4 289/7/4 298/7/4
f 289/8/4 290/8/4 299/8/4
f 298/7/4 289/7/4 299/7/4
f 290/7/4 291/7/4 300/7/4
f 299/8/4 290/8/4 300/8/4
f 300/7/4 291/7/4 301/7/4
f 277/6/4 278/6/4 302/6/4
f 272/1/4 277/1/4 302/1/4
f 302/6/4 278/6/4 303/6/4
f 297/9/4 298/9/4 304/9/4
f 293/5/4 294/5/4 304/5/4
f 294/9/4 295/9/4 304/9/4
f 296/9/4 297/9/4 304/9/4
f 292/5/4 293/5/4 304/5/4
f 295/9/4 296/9/4 304/9/4
f 304/9/4 298/9/4 305/9/4
f 305/9/4 298/9/4 306/9/4
f 298/8/4 299/8/4 307/8/4
f 306/9/4 298/9/4 307/9/4
f 299/4/4 300/4/4 308/4/4
f 307/8/4 299/8/4 308/8/4
f 300/8/4 301/8/4 309/8/4
f 308/4/4 300/4/4 309/4/4
f 309/8/4 301/8/4 310/8/4
f 302/1/4 303/1/4 311/1/4
f 272/1/4 302/1/4 311/1/4
f 311/1/4 303/1/4 312/1/4
f 292/5/4 304/5/4 313/5/4
f 313/5/4 304/5/4 314/5/4
f 314/5/4 304/5/4 315/5/4
f 305/3/4 306/3/4 317/3/4
f 317/3/4 306/3/4 318/3/4
f 307/7/4 308/7/4 319/7/4
f 308/8/4 309/8/4 320/8/4
f 319/7/4 308/7/4 320/7/4
f 309/7/4 310/7/4 321/7/4
f 320/8/4 309/8/4 321/8/4
f 321/7/4 310/7/4 322/7/4
f 312/1/4 303/1/4 323/1/4
f 303/6/4 278/6/4 323/6/4
f 323/6/4 278/6/4 324/6/4
f 315/5/4 316/5/4 325/5/4
f 314/5/4 315/5/4 325/5/4
f 313/2/4 314/2/4 325/2/4
f 325/5/4 316/5/4 326/5/4
f 326/5/4 316/5/4 327/5/4
f 323/1/4 324/1/4 329/1/4
f 312/1/4 323/1/4 329/1/4
f 329/1/4 324/1/4 330/1/4
f 327/5/4 328/5/4 331/5/4
f 326/5/4 327/5/4 331/5/4
f 330/1/4 324/1/4 333/1/4
f 333/1/4 324/1/4 334/1/4
f 331/5/4 332/5/4 335/5/4
f 326/5/4 331/5/4 335/5/4
f 335/5/4 332/5/4 336/5/4
f 313/2/4 325/2/4 337/2/4
f 325/2/4 326/2/4 337/2/4
f 326/5/4 335/5/4 338/5/4
f 337/2/4 326/2/4 338/2/4
f 337/5/4 338/5/4 347/5/4
f 338/5/4 335/5/4 347/5/4
f 347/5/4 335/5/4 348/5/4
f 339/3/4 340/3/4 349/3/4
f 349/3/4 340/3/4 350/3/4
f 341/7/4 342/7/4 351/7/4
f 342/8/4 343/8/4 352/8/4
f 351/7/4 342/7/4 352/7/4
f 343/7/4 344/7/4 353/7/4
f 352/8/4 343/8/4 353/8/4
f 353/7/4 344/7/4 354/7/4
f 345/1/4 346/1/4 356/1/4
f 337/5/4 347/5/4 357/5/4
f 347/9/4 348/9/4 358/9/4
f 357/5/4 347/5/4 358/5/4
f 349/9/4 350/9/4 358/9/4
f 350/9/4 351/9/4 358/9/4
f 348/9/4 349/9/4 358/9/4
f 358/9/4 351/9/4 359/9/4
f 359/9/4 351/9/4 360/9/4
f 360/9/4 351/9/4 361/9/4
f 351/8/4 352/8/4 362/8/4
f 361/9/4 351/9/4 362/9/4
f 352/4/4 353/4/4 363/4/4
f 362/8/4 352/8/4 363/8/4
f 353/8/4 354/8/4 364/8/4
f 363/4/4 353/4/4 364/4/4
f 364/8/4 354/8/4 365/8/4
f 355/1/4 356/1/4 367/1/4
f 356/1/4 346/1/4 368/1/4
f 367/1/4 356/1/4 368/1/4
f 368/1/4 346/1/4 369/1/4
f 357/2/4 358/2/4 370/2/4
f 358/5/4 359/5/4 370/5/4
f 370/5/4 359/5/4 371/5/4
f 360/3/4 361/3/4 372/3/4
f 372/3/4 361/3/4 373/3/4
f 362/7/4 363/7/4 374/7/4
f 363/8/4 364/8/4 375/8/4
f 374/7/4 363/7/4 375/7/4
f 364/7/4 365/7/4 376/7/4
f 375/8/4 364/8/4 376/8/4
f 376/7/4 365/7/4 377/7/4
f 366/1/4 367/1/4 378/1/4
f 367/1/4 368/1/4 378/1/4
f 368/6/4 369/6/4 379/6/4
f 378/1/4 368/1/4 379/1/4
f 370/2/4 371/2/4 380/2/4
f 357/2/4 370/2/4 380/2/4
f 371/5/4 372/5/4 381/5/4
f 380/2/4 371/2/4 381/2/4
f 381/5/4 372/5/4 382/5/4
f 382/5/4 372/5/4 383/5/4
f 380/5/4 381/5/4 384/5/4
f 381/5/4 382/5/4 384/5/4
f 384/5/4 382/5/4 385/5/4
f 366/1/4 378/1/4 386/1/4
f 378/6/4 379/6/4 387/6/4
f 386/1/4 378/1/4 387/1/4
f 379/6/4 369/6/4 388/6/4
f 387/6/4 379/6/4 388/6/4
f 397/5/5 390/5/5 389/5/5
f 398/2/5 391/2/5 390/2/5
f 398/5/5 390/5/5 397/5/5
f 399/5/5 392/5/5 391/5/5
f 399/2/5 391/2/5 398/2/5
f 400/2/5 393/2/5 392/2/5
f 400/5/5 392/5/5 399/5/5
f 401/5/5 394/5/5 393/5/5
f 401/2/5 393/2/5 400/2/5
f 402/2/5 395/2/5 394/2/5
f 402/5/5 394/5/5 401/5/5
f 403/5/5 396/5/5 395/5/5
f 403/2/5 395/2/5 402/2/5
f 404/5/5 396/5/5 403/5/5
f 407/3/5 406/3/5 405/3/5
f 408/3/5 406/3/5 407/3/5
f 413/3/5 410/3/5 409/3/5
f 414/3/5 410/3/5 413/3/5
f 415/3/5 412/3/5 411/3/5
f 416/3/5 412/3/5 415/3/5
f 425/7/5 418/7/5 417/7/5
f 426/7/5 418/7/5 425/7/5
f 427/7/5 420/7/5 419/7/5
f 428/7/5 420/7/5 427/7/5
f 429/7/5 422/7/5 421/7/5
f 430/7/5 422/7/5 429/7/5
f 431/7/5 424/7/5 423/7/5
f 432/7/5 424/7/5 431/7/5
f 437/1/5 434/1/5 433/1/5
f 438/1/5 434/1/5 437/1/5
f 439/1/5 436/1/5 435/1/5
f 440/1/5 436/1/5 439/1/5
f 445/1/5 442/1/5 441/1/5
f 446/1/5 442/1/5 445/1/5
f 447/1/5 444/1/5 443/1/5
f 448/1/5 444/1/5 447/1/5
f 453/1/5 450/1/5 449/1/5
f 454/1/5 450/1/5 453/1/5
f 455/1/5 452/1/5 451/1/5
f 456/1/5 452/1/5 455/1/5
f 457/5/6 458/5/6 459/5/6
f 459/5/6 458/5/6 460/5/6
f 461/5/6 462/5/6 463/5/6
f 463/5/6 462/5/6 464/5/6
f 465/5/6 466/5/6 471/5/6
f 471/5/6 466/5/6 472/5/6
f 467/5/6 468/5/6 473/5/6
f 473/5/6 468/5/6 474/5/6
f 469/5/6 470/5/6 475/5/6
f 475/5/6 470/5/6 476/5/6
f 477/5/6 478/5/6 481/5/6
f 481/5/6 478/5/6 482/5/6
f 479/5/6 480/5/6 483/5/6
f 483/5/6 480/5/6 484/5/6
f 485/5/6 486/5/6 491/5/6
f 491/5/6 486/5/6 492/5/6
f 487/5/6 488/5/6 493/5/6
f 493/5/6 488/5/6 494/5/6
f 489/5/6 490/5/6 495/5/6
f 495/5/6 490/5/6 496/5/6
f 497/5/6 498/5/6 503/5/6
f 503/5/6 498/5/6 504/5/6
f 499/3/6 500/3/6 505/3/6
f 505/3/6 500/3/6 506/3/6
f 501/5/6 502/5/6 507/5/6
f 507/5/6 502/5/6 508/5/6
f 509/3/6 510/3/6 513/3/6
f 513/3/6 510/3/6 514/3/6
f 511/3/6 512/3/6 515/3/6
f 515/3/6 512/3/6 516/3/6
f 517/7/6 518/7/6 525/7/6
f 518/8/6 519/8/6 526/8/6
f 525/7/6 518/7/6 526/7/6
f 519/7/6 520/7/6 527/7/6
f 526/8/6 519/8/6 527/8/6
f 527/7/6 520/7/6 528/7/6
f 521/7/6 522/7/6 529/7/6
f 522/8/6 523/8/6 530/8/6
f 529/7/6 522/7/6 530/7/6
f 523/7/6 524/7/6 531/7/6
f 530/8/6 523/8/6 531/8/6
f 531/7/6 524/7/6 532/7/6
f 533/1/6 534/1/6 540/1/6
f 534/6/6 535/6/6 541/6/6
f 540/1/6 534/1/6 541/1/6
f 535/1/6 536/1/6 542/1/6
f 541/6/6 535/6/6 542/6/6
f 542/1/6 536/1/6 543/1/6
f 537/1/6 538/1/6 544/1/6
f 538/6/6 539/6/6 545/6/6
f 544/1/6 538/1/6 545/1/6
f 545/6/6 539/6/6 546/6/6
